<?xml version="1.0" encoding="UTF-8" standalone="no"?>
<!-- Created with Inkscape (http://www.inkscape.org/) -->

<svg
   xmlns:dc="http://purl.org/dc/elements/1.1/"
   xmlns:cc="http://creativecommons.org/ns#"
   xmlns:rdf="http://www.w3.org/1999/02/22-rdf-syntax-ns#"
   xmlns:svg="http://www.w3.org/2000/svg"
   xmlns="http://www.w3.org/2000/svg"
   xmlns:sodipodi="http://sodipodi.sourceforge.net/DTD/sodipodi-0.dtd"
   xmlns:inkscape="http://www.inkscape.org/namespaces/inkscape"
   width="744.09448819"
   height="1052.3622047"
   id="svg2"
   version="1.1"
   inkscape:version="0.48.3.1 r9886"
   sodipodi:docname="rocket.svg">
  <defs
     id="defs4" />
  <sodipodi:namedview
     id="base"
     pagecolor="#ffffff"
     bordercolor="#666666"
     borderopacity="1.0"
     inkscape:pageopacity="0.0"
     inkscape:pageshadow="2"
     inkscape:zoom="1.4"
     inkscape:cx="536.13644"
     inkscape:cy="819.8203"
     inkscape:document-units="px"
     inkscape:current-layer="layer1"
     showgrid="false"
     inkscape:window-width="1920"
     inkscape:window-height="1056"
     inkscape:window-x="0"
     inkscape:window-y="24"
     inkscape:window-maximized="1" />
  <metadata
     id="metadata7">
    <rdf:RDF>
      <cc:Work
         rdf:about="">
        <dc:format>image/svg+xml</dc:format>
        <dc:type
           rdf:resource="http://purl.org/dc/dcmitype/StillImage" />
        <dc:title></dc:title>
      </cc:Work>
    </rdf:RDF>
  </metadata>
  <g
     inkscape:label="Layer 1"
     inkscape:groupmode="layer"
     id="layer1">
    <path
       style="fill:#5fbcd3;fill-rule:evenodd;stroke:none;stroke-width:1px;stroke-linecap:butt;stroke-linejoin:miter;stroke-opacity:1"
       d="M 293.21875 165.96875 C 293.21875 165.96875 253.84485 230.61954 250.28125 256.75 C 248.74702 267.99984 260.4375 289.25 260.4375 289.25 L 241.875 311.5 L 258.96875 311.5 L 277.03125 297.25 L 309.40625 297.25 L 327.4375 311.5 L 344.5625 311.5 L 326 289.25 C 326 289.25 337.69048 267.99984 336.15625 256.75 C 332.59265 230.61954 293.21875 165.96875 293.21875 165.96875 z M 293.21875 214.03125 C 301.58713 214.03125 308.375 220.78787 308.375 229.15625 C 308.375 237.52463 301.58713 244.3125 293.21875 244.3125 C 284.85037 244.3125 278.0625 237.52463 278.0625 229.15625 C 278.0625 220.78787 284.85037 214.03125 293.21875 214.03125 z "
       id="rect3005" />
  </g>
</svg>
